<?xml version="1.0" encoding="utf-8"?>
<!DOCTYPE svg PUBLIC "-//W3C//DTD SVG 1.0//EN" "http://www.w3.org/TR/2001/REC-SVG-20010904/DTD/svg10.dtd">
<svg version="1.0" xmlns="http://www.w3.org/2000/svg" width="190px" height="48px" viewBox="0 0 190 48" preserveAspectRatio="xMidYMid meet">
 <g fill="#020202">
  <path d="M0 24 l0 -24 95 0 95 0 0 24 0 24 -95 0 -95 0 0 -24z"/>
 </g>
 <g fill="#fefefe">
  <path d="M56 24.5 l0 -10.5 4.8 0 c2.6 0 5.8 0.6 7.2 1.3 2.8 1.4 3.8 5.1 1.9 7.3 -1 1.2 -0.9 1.7 0.5 2.7 2.6 1.9 1.7 6.8 -1.4 8.4 -1.4 0.7 -4.9 1.3 -7.7 1.3 l-5.3 0 0 -10.5z m10.5 4 c0 -1.4 -0.8 -2.1 -2.7 -2.3 -2.4 -0.3 -2.8 0 -2.8 2.3 0 2.3 0.4 2.6 2.8 2.3 1.9 -0.2 2.7 -0.9 2.7 -2.3z m-1 -8 c0 -1.3 -0.8 -2.1 -2.2 -2.3 -1.9 -0.3 -2.3 0.1 -2.3 2.3 0 2.2 0.4 2.6 2.3 2.3 1.4 -0.2 2.2 -1 2.2 -2.3z"/>
  <path d="M74 27 c0 -7.3 0.2 -8 2 -8 1.1 0 2 0.5 2 1 0 0.7 0.6 0.7 1.9 0 2.7 -1.4 3.1 -1.3 3.1 1.1 l0 2 2.6 -2 c3.2 -2.5 6.1 -2.7 9.2 -0.5 1.9 1.3 2.2 2.4 2.2 7.8 l0 6.3 -6 0 c-6.4 0.1 -8.4 -1.1 -7.8 -4.8 0.3 -2.4 1.8 -3.5 6.1 -4.4 1.5 -0.3 2.7 -0.9 2.7 -1.4 0 -1 -11 -0.8 -12.7 0.2 -0.8 0.5 -1.3 2.9 -1.3 5.8 0 4.2 -0.3 4.9 -2 4.9 -1.8 0 -2 -0.7 -2 -8z m17.8 2.6 c0.3 -1.3 -0.1 -1.7 -1.4 -1.4 -1.1 0.2 -2 1.1 -2.2 2.2 -0.3 1.3 0.1 1.7 1.4 1.4 1.1 -0.2 2 -1.1 2.2 -2.2z"/>
  <path d="M99 26.9 c0 -7.8 0.1 -8 2.3 -7.7 2 0.3 2.2 0.9 2.5 8.1 0.3 7.7 0.3 7.7 -2.3 7.7 -2.5 0 -2.5 -0.1 -2.5 -8.1z"/>
  <path d="M106 27 c0 -7.3 0.2 -8 2 -8 1.2 0 2 0.7 2 1.7 0 1.5 0.1 1.5 1.8 0 4.7 -4.3 8.2 -0.9 8.2 7.9 0 5.7 -0.2 6.4 -2 6.4 -1.7 0 -2 -0.7 -2 -4.9 0 -5.9 -2.3 -8.8 -4.6 -5.6 -0.8 1 -1.4 3.8 -1.4 6.2 0 3.6 -0.3 4.3 -2 4.3 -1.8 0 -2 -0.7 -2 -8z"/>
  <path d="M123.3 27.6 c-1.1 -4.2 -1.8 -7.8 -1.5 -8.1 1.2 -1.2 4.1 -0.4 4.5 1.3 0.3 0.9 0.8 3.1 1.2 4.7 0.8 3 0.8 3 1.9 -1.5 0.9 -3.4 1.7 -4.6 3.3 -4.8 1.8 -0.3 2.4 0.5 3.6 4.5 l1.4 4.8 0.9 -4.5 c0.8 -3.5 1.4 -4.6 3.2 -4.8 2.7 -0.4 2.7 0.9 0.4 9.3 -1.5 5.2 -2 6 -4.4 6.3 -2.2 0.3 -2.7 -0.1 -3.3 -3 -1.2 -5.3 -1.9 -5.6 -3.1 -1.3 -0.8 3.1 -1.6 4.1 -3.6 4.3 -2.3 0.3 -2.6 -0.2 -4.5 -7.2z"/>
  <path d="M146 33.5 c-1.5 -1.8 -0.9 -5.6 1 -6.6 0.8 -0.4 2.7 -1 4.3 -1.4 4.8 -1 3.1 -2.7 -1.9 -1.9 -4.4 0.6 -4.6 0.6 -3.5 -1.4 2 -3.8 10.1 -3.9 12.1 -0.2 0.6 1 1 4.3 1 7.3 l0 5.5 -6 0 c-3.7 0 -6.3 -0.5 -7 -1.3z m7.8 -3.8 c0.4 -1.8 -1.4 -2.2 -3.7 -0.8 -0.7 0.5 -1 1.4 -0.6 2 1 1.7 3.9 0.9 4.3 -1.2z"/>
  <path d="M161.9 28.3 c-1.2 -3.8 -2.4 -7.4 -2.7 -8 -0.2 -0.8 0.5 -1.3 2.1 -1.3 2.2 0 2.8 0.7 3.6 3.8 0.6 2 1.1 4.3 1.1 5 0 2.8 1.9 0 2.5 -3.9 0.7 -4 2.3 -5.6 4.9 -4.6 1.1 0.4 0.8 2 -1.3 8.1 -2.4 6.9 -2.8 7.6 -5.3 7.6 -2.4 0 -2.9 -0.7 -4.9 -6.7z"/>
  <path d="M176.9 32.9 c-3 -3 -2.3 -9.5 1.3 -12.2 4.3 -3.2 10.8 -0.3 10.8 4.9 0 2.2 -0.4 2.4 -4.4 2.4 -4.8 0 -6.7 1.3 -4 2.8 1.1 0.6 2.7 0.5 4.5 -0.1 3.6 -1.4 4.7 -0.3 2.4 2.3 -2.4 2.7 -7.9 2.6 -10.6 -0.1z m7.6 -8.9 c-0.3 -0.5 -1.5 -1 -2.6 -1 -1 0 -1.9 0.5 -1.9 1 0 0.6 1.2 1 2.6 1 1.4 0 2.3 -0.4 1.9 -1z"/>
  <path d="M99.4 16.5 c-0.7 -1.8 0.3 -3.5 2.1 -3.5 2.1 0 2.8 1.9 1.5 3.5 -1.6 1.9 -2.9 1.9 -3.6 0z"/>
 </g>
 <g fill="#0084ff">
  <path d="M27.3 42.7 c-1.3 -0.5 -2.3 -1.8 -2.3 -2.9 0 -2 1.1 -2.3 2.7 -0.7 0.8 0.8 1.8 0.7 3.8 -0.4 l2.8 -1.4 -2.2 -1.5 c-1.2 -0.9 -3 -1.4 -4.1 -1.1 -2.9 0.8 -3.4 -1.6 -0.5 -2.9 2.2 -1 3.1 -0.9 5.6 0.6 2.5 1.5 2.9 1.5 2.9 0.2 0 -0.9 1.1 -2.3 2.6 -3.2 2 -1.4 2.4 -2.4 2.2 -5.2 -0.4 -4.3 -2.9 -6.2 -5.3 -4.2 -1.6 1.3 -1.5 1.5 0.5 3.2 2.8 2.3 2 3.2 -3 3.3 -4.3 0.1 -4.7 -0.4 -2.8 -3.5 1.5 -2.4 0 -4.4 -2.5 -3.4 -1.2 0.4 -1.7 1.8 -1.7 5 0 3.7 -0.4 4.5 -3 6.1 -1.6 0.9 -3 2.5 -3 3.5 0 2.7 -1.9 2.2 -3 -0.8 -0.7 -1.8 -1.5 -2.4 -2.6 -2 -0.9 0.3 -1.8 0.6 -2 0.6 -0.2 0 -0.4 0.9 -0.4 1.9 0 1.1 1.3 2.8 3 3.8 1.7 0.9 3 2.5 3 3.5 0 2.4 -0.8 2.3 -5.3 -0.7 -2.5 -1.8 -3.7 -3.3 -3.7 -5 0 -1.3 -1.1 -3.2 -2.5 -4.3 -2.1 -1.7 -2.5 -2.8 -2.5 -7.5 0 -4.7 0.3 -5.7 2.4 -7.1 1.4 -0.9 2.6 -2.7 2.8 -4.3 0.4 -3.7 8.2 -8.5 11.6 -7 1.2 0.6 2.2 1.8 2.2 2.9 0 2.1 -0.4 2.2 -2.9 0.8 -1.3 -0.6 -2.4 -0.4 -4 0.6 -2.1 1.5 -2.1 1.7 -0.4 2.9 1 0.8 2.8 1.1 3.9 0.9 3.1 -0.8 3.8 1.1 1 2.9 -2.1 1.4 -2.6 1.4 -5.5 -0.4 -2.5 -1.5 -3.1 -1.6 -3.1 -0.4 0 0.8 -1.1 2.2 -2.5 3.1 -3 2 -3.4 7.2 -0.7 9.7 1.5 1.4 1.9 1.4 3.7 0.1 2 -1.5 2 -1.5 -0.4 -3.5 -2.9 -2.4 -1.6 -4.8 1.6 -3 1.4 0.7 2.3 0.7 3.1 -0.1 1.9 -1.9 2.7 0 1.2 2.7 -1 1.9 -1.1 2.8 -0.2 3.7 2 2 4.2 0.1 4.2 -3.9 0 -4.4 0.6 -5.5 3.8 -7.2 1.2 -0.6 2.2 -2 2.2 -3.1 0 -1.3 0.5 -1.8 1.5 -1.4 0.8 0.4 1.5 1.2 1.5 1.9 0 1.8 1.5 2.6 3.4 1.9 2.6 -1 1.8 -4.1 -1.4 -6.1 -1.6 -0.9 -3 -2.5 -3 -3.5 0 -2.3 0.3 -2.3 5 0.8 2.7 1.8 4 3.4 4 5 0 1.2 1.1 3.1 2.5 4.2 2.1 1.7 2.5 2.8 2.5 7.5 0 4.7 -0.3 5.7 -2.5 7.1 -1.5 1 -2.5 2.6 -2.5 4.1 0 2.3 -2 4.1 -8.5 7.7 -0.5 0.3 -2 0.1 -3.2 -0.5z"/>
 </g>
</svg>